<svg width="93" height="48" viewBox="0 0 93 48" fill="none" xmlns="http://www.w3.org/2000/svg">
<path d="M22.0917 46.1494C20.4724 44.106 19.817 43.2964 18.7374 41.7156L18.6603 41.6C16.8868 38.9783 15.4603 36.8192 13.4169 35.277C15.9615 34.0048 17.3109 31.8072 17.3109 29.0312C17.3109 26.6794 16.3856 24.7517 14.6121 23.4023C12.9157 22.0914 10.4868 21.3975 7.59522 21.3975H0V47.7301H4.93496C5.12773 47.7301 5.2434 47.5759 5.2434 47.4217V36.8963H6.24581C7.94221 36.8963 9.44583 37.2819 13.0314 42.3325L16.6555 47.4988C16.7712 47.653 17.0025 47.7687 17.1567 47.7687H23.2483L22.0917 46.1494ZM11.1422 31.0746C10.3711 31.8457 9.02173 32.2698 7.17112 32.2698H5.28195V25.7156H7.17112C11.3735 25.7156 11.9133 27.5276 11.9519 28.877C11.9519 29.7638 11.682 30.5349 11.1422 31.0746ZM39.5182 40.559C39.5182 42.6409 38.6701 44.5687 37.0893 45.9181C35.5471 47.2675 33.4267 48 31.1519 48C28.0676 48 25.4845 47.2289 23.0555 45.5711L22.7856 45.3783V39.4795C22.7856 39.3638 22.9013 39.2481 23.017 39.2481C23.0941 39.2481 23.1712 39.2867 23.2097 39.3253C24.1736 40.5975 26.7953 43.4506 30.6893 43.4506C33.4652 43.4506 34.5062 41.9084 34.5062 40.9445C34.5062 38.9397 32.1929 37.6674 29.5327 36.1638C26.2941 34.3903 22.5929 32.3469 22.5929 28.2987C22.5929 26.1011 23.4796 24.2505 25.1375 22.9011C26.7567 21.6288 28.9929 20.9348 31.6146 20.9348C33.8508 20.9348 36.0869 21.5902 38.0917 22.7854L38.4002 22.9782V28.2601C38.4002 28.3758 38.2845 28.4915 38.1688 28.4915C38.1303 28.4915 38.0532 28.4915 38.0146 28.4529C37.0893 27.5662 34.5062 25.4457 31.3062 25.4457C29.1086 25.4457 27.6049 26.4095 27.6049 27.7589C27.6049 29.4553 29.6869 30.5349 32.0773 31.7686C35.3929 33.5421 39.5182 35.6626 39.5182 40.559ZM53.5135 21.5517C53.4749 21.436 53.3207 21.3204 53.1665 21.3204H49.9279C49.8123 21.3204 49.6581 21.436 49.5809 21.5517L38.5544 47.6916H43.7978C43.9134 47.6916 44.0677 47.5759 44.1448 47.4602L47.1906 40.2891H56.4051L59.4509 47.4602C59.4894 47.5759 59.6436 47.6916 59.7979 47.6916H65.0413L53.5135 21.5517ZM49.1568 35.7397L51.8171 29.4939L54.4773 35.7397H49.1568Z" fill="#575756"/>
<path d="M65.1256 19.4314L61.6557 20.935C61.54 20.9736 61.4629 21.1278 61.5014 21.282L61.6171 21.6676C61.6557 21.7832 61.8099 21.8603 61.9641 21.8603L65.1641 21.1278C65.1255 20.5495 65.1256 19.9712 65.1256 19.4314ZM65.7039 16.4627L60.9617 17.3109C60.8075 17.3495 60.7303 17.4651 60.7303 17.6193L60.7689 18.0434C60.7689 18.1977 60.9231 18.2748 61.0388 18.2748L65.2798 18.1206C65.3954 17.5808 65.5496 17.0025 65.7039 16.4627ZM60.9617 14.9976L65.9352 15.8844C66.1665 15.2675 66.4364 14.7278 66.7834 14.1495L61.0773 13.9567C60.9231 13.9567 60.8075 14.0723 60.8075 14.188L60.7689 14.6507C60.7303 14.8434 60.8075 14.9591 60.9617 14.9976ZM65.3183 22.3615L63.0051 23.9808C62.8894 24.0579 62.8508 24.2121 62.9279 24.3278L63.1207 24.6362C63.1978 24.7519 63.352 24.7905 63.4677 24.7519L65.6653 23.7495C65.5111 23.2868 65.3954 22.8627 65.3183 22.3615ZM88.451 11.4121C88.451 11.2964 88.3353 11.2193 88.2196 11.2579L87.2943 11.4892L88.4124 10.7181C88.3353 10.0627 88.2196 9.44582 88.0269 8.82895C87.9883 8.71329 87.8726 8.63618 87.757 8.71329L85.9835 9.52293L87.6799 7.71087C87.4871 7.17111 87.2172 6.66991 86.9473 6.20725C86.8702 6.09159 86.7546 6.05303 86.6389 6.13014L84.2871 7.90364L86.0991 4.8964C85.7907 4.51086 85.4823 4.12532 85.1353 3.77833C85.0582 3.70122 84.904 3.70122 84.8268 3.81688L82.3594 6.66991L83.7859 2.58314C83.4389 2.31326 83.0919 2.08194 82.7064 1.85061C82.5907 1.7735 82.4365 1.81206 82.3594 1.92772L80.1232 5.78315L80.7015 1.07952C80.7015 0.963859 80.6244 0.809641 80.5087 0.732532C80.2389 0.616869 79.9304 0.539761 79.6605 0.462653C79.5449 0.424098 79.3907 0.501206 79.3521 0.616869L77.8871 5.43617L77.463 0.231326C77.463 0.0771081 77.3473 0 77.1931 0H76.3834C76.2292 0 76.1136 0.115663 76.1136 0.231326L75.6509 5.59038L74.1087 0.424097C74.0702 0.308434 73.916 0.192771 73.8003 0.231326L73.0678 0.385544C72.9135 0.424098 72.8364 0.539761 72.8364 0.693978L73.5304 6.20725L70.8702 1.31085C70.793 1.19518 70.6388 1.11808 70.5232 1.19518L69.8677 1.46507C69.7521 1.50362 69.675 1.65784 69.7135 1.81206L71.6027 7.20967L67.9015 2.85302C67.8244 2.73736 67.6316 2.73736 67.5545 2.81447L67.0147 3.20001C66.899 3.27712 66.8605 3.43134 66.9376 3.547L70.022 8.55907L65.3569 4.97351C65.2412 4.8964 65.087 4.8964 65.0099 5.01207L64.5858 5.47472C64.5087 5.59038 64.5087 5.7446 64.5858 5.86026L68.7882 10.2555L63.3135 7.63376C63.1978 7.55666 63.0436 7.63377 62.9665 7.74943L62.6966 8.25063C62.6195 8.3663 62.6581 8.52051 62.7737 8.59762L67.94 12.1061L61.887 10.6024C61.7713 10.5639 61.6171 10.641 61.5785 10.7952L61.4243 11.2964C61.3858 11.4121 61.4629 11.5663 61.5785 11.6434L66.9376 13.841C68.8268 10.7181 72.1424 8.52052 76.0364 8.17353C76.3063 8.13497 76.5762 8.13497 76.8846 8.13497C81.2798 8.13497 84.8268 11.682 84.8268 16.0772C84.8268 20.241 81.6268 23.6338 77.5401 23.9808C81.7039 23.6338 85.2124 21.2049 87.1016 17.7736C88.0654 15.923 88.6052 13.7254 88.451 11.4121ZM64.9328 26.7182C64.8557 26.8338 64.8557 26.9881 64.9328 27.0652L65.1256 27.2965C65.2027 27.4122 65.3954 27.4122 65.5111 27.3351L66.7834 26.3712C66.5906 26.0242 66.3978 25.6772 66.2051 25.3302L64.9328 26.7182ZM70.3304 30.6507C70.2918 30.7664 70.3689 30.9206 70.4846 30.9977L70.6774 31.0748C70.793 31.1134 70.9473 31.0748 71.0244 30.9592L71.1786 30.6893C70.9473 30.5351 70.7159 30.4194 70.4846 30.2652L70.3304 30.6507ZM67.4388 28.9543C67.3617 29.07 67.4003 29.2242 67.5159 29.3013L67.7087 29.4555C67.8244 29.5326 67.9786 29.5326 68.0942 29.417L68.6726 28.7616C68.4412 28.5302 68.2099 28.2989 67.9786 28.029L67.4388 28.9543Z" fill="#4C2178"/>
<path d="M86.0786 4.81934C85.8858 4.54946 85.6545 4.27958 85.4232 4.0097L86.0786 3.23861C86.1557 3.12295 86.3485 3.12295 86.4256 3.20006L86.6184 3.35427C86.734 3.43138 86.7726 3.5856 86.6955 3.70126L86.0786 4.81934ZM88.4304 10.6796L90.975 8.90611C91.0907 8.829 91.1292 8.67478 91.0521 8.55911L90.8979 8.25068C90.8208 8.13502 90.6666 8.09646 90.5509 8.13502L88.1991 9.21454C88.2762 9.67719 88.3533 10.1784 88.4304 10.6796ZM89.1244 6.09163C89.2015 5.97597 89.2401 5.82175 89.1244 5.70609L88.9316 5.47477C88.8545 5.3591 88.6618 5.3591 88.5847 5.43621L87.1581 6.51573C87.3509 6.90128 87.5051 7.24827 87.6593 7.63381L89.1244 6.09163ZM88.3919 13.6097L92.1317 11.9905C92.2473 11.9519 92.3244 11.7977 92.2859 11.6435L92.1702 11.2579C92.1317 11.1423 91.9774 11.0266 91.8618 11.0651L88.469 11.8362C88.5075 12.4531 88.469 13.0314 88.3919 13.6097ZM87.8907 15.8073L92.6329 14.9591C92.7871 14.9206 92.8642 14.8049 92.8642 14.6507L92.8256 14.2266C92.8256 14.0724 92.6714 13.9953 92.5558 13.9953L88.3148 14.1495C88.2377 14.7278 88.0835 15.2676 87.8907 15.8073ZM83.9196 1.92776C83.9581 1.8121 83.881 1.65788 83.7654 1.58077L83.5726 1.50366C83.4569 1.42656 83.3027 1.50367 83.2256 1.61933L83.0328 1.96632C83.2642 2.12053 83.4955 2.27475 83.7268 2.46752L83.9196 1.92776ZM92.6714 17.311L87.6979 16.4242C87.4666 17.0411 87.1967 17.5808 86.8497 18.1592L92.5558 18.3519C92.71 18.3519 92.8256 18.2363 92.8256 18.1206L92.8642 17.6579C92.9027 17.4652 92.7871 17.311 92.6714 17.311ZM92.0931 20.5495L86.734 18.3519C84.8449 21.4363 81.5678 23.6339 77.6738 24.0194C77.4039 24.058 77.0955 24.058 76.8256 24.058C72.4304 24.058 68.8834 20.511 68.8834 16.1158C68.8834 12.029 72.0063 8.63622 75.9774 8.21213C69.5003 8.829 64.681 14.535 65.1436 21.0507L66.3002 20.7808L65.3749 21.4363C65.2593 21.5134 65.1822 21.7062 65.2207 21.8218C65.2978 22.4772 65.452 23.0941 65.6448 23.711L67.6497 22.7857L66.1075 24.4435C66.0304 24.5592 65.9918 24.7134 66.0304 24.8676C66.2617 25.3688 66.493 25.87 66.8015 26.3712L69.346 24.4821L67.6882 27.258C67.6111 27.3736 67.6497 27.5664 67.7268 27.6435C68.0352 28.0291 68.3436 28.3761 68.6906 28.723L71.3509 25.6773L70.0015 29.5712C69.9629 29.6869 70.04 29.8411 70.1171 29.9182C70.4641 30.1496 70.8111 30.3809 71.1966 30.6122L73.5099 26.4483L72.9316 31.152C72.9316 31.2676 73.0087 31.4219 73.1244 31.499C73.3942 31.6146 73.7027 31.6917 73.9726 31.7688C74.0882 31.8074 74.2424 31.7303 74.281 31.6146L75.7461 26.7953L76.1702 32.0002C76.1702 32.1544 76.2858 32.2701 76.44 32.2701H77.2497C77.4039 32.2701 77.5196 32.1544 77.5196 32.0002L77.9822 26.6411L79.5244 31.8074C79.5629 31.9231 79.7172 32.0387 79.8328 32.0002L80.5654 31.846C80.681 31.8074 80.7967 31.6917 80.7967 31.5375L80.1027 26.0242L82.7629 30.9206C82.8401 31.0363 82.9943 31.1134 83.1099 31.0363L83.7654 30.7664C83.881 30.7279 83.9581 30.5737 83.9196 30.4194L82.0304 25.0218L85.7316 29.3785C85.8087 29.4941 86.0015 29.4941 86.0786 29.417L86.6184 29.0315C86.734 28.9544 86.7726 28.8002 86.6955 28.6845L83.6111 23.6724L88.2762 27.258C88.3919 27.3351 88.5461 27.3351 88.6232 27.2194L89.0473 26.7568C89.1244 26.6411 89.1244 26.4869 89.0473 26.3712L84.8449 21.976L90.3196 24.5977C90.4353 24.6748 90.5895 24.5977 90.6666 24.4821L90.9365 23.9809C91.0136 23.8652 90.975 23.711 90.8594 23.6339L85.6931 20.1254L91.7461 21.629C91.8618 21.6676 92.016 21.5905 92.0545 21.4363L92.2088 20.9351C92.2859 20.7423 92.2088 20.5881 92.0931 20.5495Z" fill="#D4007F"/>
</svg>
